<svg width="131" height="42" viewBox="0 0 131 42" fill="none" xmlns="http://www.w3.org/2000/svg">
<path fill-rule="evenodd" clip-rule="evenodd" d="M9.43332 26.717C8.16719 27.3048 5.70387 28.6206 5.9375 30.0464C6.25887 30.9234 7.26203 29.9968 7.63185 29.6277C8.43016 28.8601 9.06322 27.7935 9.43332 26.717ZM16.9891 23.5667C16.1517 25.8096 13.7078 26.8763 13.0263 26.4979C12.6853 26.3079 13.0554 25.6002 13.065 25.1121C12.5685 25.311 11.7505 25.6801 11.2539 25.8896C12.442 26.7966 13.0554 28.3618 13.0457 29.8471C13.0457 31.3724 12.4325 32.778 11.2832 33.7451C13.328 36.8447 12.2864 39.5165 9.47235 41.5998L9.29685 41.7195L9.23844 41.5106C8.81991 40.0352 8.29397 38.7889 7.30078 37.6122C6.80418 37.0247 6.23921 36.4861 5.68449 35.9475C4.95427 35.2398 4.2534 34.5224 3.59099 33.7551C0.806009 30.7241 -0.294308 25.4706 0.0663865 21.4136C0.251007 19.3203 0.874672 17.3163 1.82854 15.4623C2.58811 13.9869 3.55196 12.6312 4.66224 11.4152C7.11559 8.72351 10.3681 6.59989 13.8249 5.55339C16.8623 4.62652 20.3385 4.46664 23.2309 5.99218C23.6981 6.24104 24.399 6.67954 24.7887 7.00892C25.0326 7.23794 25.2754 7.47717 25.5093 7.70678C25.5383 7.72661 25.568 7.75666 25.5873 7.78613L39.1119 0.718572C40.2316 0.150542 41.069 0.150542 41.41 0.559278C41.8092 1.03774 41.2545 2.03435 40.4658 2.62251L28.8783 11.2354C29.0826 11.9234 28.7418 12.9203 28.2353 13.5084C29.7838 14.0566 28.4205 16.3792 27.7387 17.2066C25.801 19.5593 22.2474 21.4037 19.0829 22.7492C18.2356 23.1183 17.7489 23.2779 16.9891 23.5667V23.5667Z" fill="#384250"/>
<path fill-rule="evenodd" clip-rule="evenodd" d="M27.5931 15.4424C28.4595 14.3256 27.8558 13.6779 27.2521 14.3061C26.064 15.5518 24.2628 15.9804 22.6371 15.7111C20.2607 15.3027 20.1541 14.9339 20.553 14.5748C23.3574 15.6219 26.619 14.2562 27.9723 11.9931C28.5567 11.136 26.5999 10.448 25.4412 8.84312C19.9009 1.18682 2.55876 7.86635 0.903446 21.254C0.396879 25.2813 1.49719 29.7371 4.20468 32.8772C6.22981 35.2301 8.43015 36.2072 9.67634 39.9057C12.1012 37.7718 11.7214 35.36 9.94957 33.2463C12.9773 31.6314 12.5394 27.4344 10.4071 26.1589C9.41394 29.8967 5.84974 32.6581 5.02237 30.0064C4.48702 27.3048 8.8296 25.5109 15.7916 22.8093C21.6143 20.576 25.3731 18.7319 27.5931 15.4424" fill="#31D3DB"/>
<path fill-rule="evenodd" clip-rule="evenodd" d="M27.5931 15.4424C28.4595 14.3256 27.8558 13.678 27.2521 14.3061C26.2301 15.3823 24.6913 15.8512 23.289 15.7812C20.894 15.6017 18.9852 15.1233 17.233 15.3126C13.7856 15.6715 10.4265 17.9045 8.62504 19.7886C5.58735 22.9788 2.23739 29.5977 5.61641 30.884C5.36312 30.7241 5.15856 30.4353 5.02237 30.0064C4.48703 27.3048 8.8296 25.5109 15.7916 22.8093C21.6143 20.576 25.3731 18.7319 27.5931 15.4424" fill="white"/>
<path fill-rule="evenodd" clip-rule="evenodd" d="M12.6853 20.6659C14.4768 21.563 14.1166 24.7127 13.8537 25.5013C17.2521 24.5137 16.2392 19.3603 17.817 17.7849C15.8401 17.7251 12.14 19.7585 12.6853 20.6659" fill="#31D3DB"/>
<path fill-rule="evenodd" clip-rule="evenodd" d="M18.4304 11.3349C18.9171 11.0762 19.5114 11.2553 19.7744 11.7542C20.0274 12.2423 19.8422 12.8506 19.3652 13.1198C18.888 13.3789 18.2846 13.1992 18.031 12.7012C17.7683 12.2125 17.9532 11.6042 18.4304 11.3349" fill="#384250"/>
<path fill-rule="evenodd" clip-rule="evenodd" d="M26.6777 11.7638L40.3097 2.04456C40.6892 1.76536 41.196 1.16699 40.9912 0.878159C40.7872 0.589039 40.1929 0.748332 39.6866 0.977645L24.944 9.13196C24.4671 10.1487 25.4312 12.2922 26.6777 11.7638" fill="#31D3DB"/>
<path fill-rule="evenodd" clip-rule="evenodd" d="M25.4799 9.84003L39.7256 1.25685C40.3487 0.878162 40.592 0.888082 40.9715 0.848112C40.7576 0.599253 40.1732 0.748335 39.6866 0.977648L24.944 9.13196C24.5842 9.89955 25.0517 11.3253 25.8403 11.734C25.558 11.1059 25.3731 10.448 25.4799 9.84003" fill="white"/>
<path fill-rule="evenodd" clip-rule="evenodd" d="M4.49643 13.6578C4.96368 13.5779 5.32438 13.9073 5.31441 14.3959C5.31441 14.884 4.93491 15.3426 4.46737 15.4226C4.00981 15.5019 3.6494 15.1731 3.65937 14.6947C3.65937 14.2063 4.03859 13.7477 4.49643 13.6578" fill="#00ABA4"/>
<path fill-rule="evenodd" clip-rule="evenodd" d="M7.26203 10.5376C7.67116 10.4679 7.99225 10.757 7.98228 11.1858C7.97259 11.6246 7.64153 12.0229 7.23268 12.1028C6.82384 12.1728 6.50218 11.8834 6.51186 11.4551C6.52184 11.0263 6.8529 10.6172 7.26203 10.5376" fill="#00ABA4"/>
<path fill-rule="evenodd" clip-rule="evenodd" d="M15.6261 6.41083C16.0449 6.43067 16.2979 6.78923 16.1908 7.20788C16.0936 7.62683 15.6748 7.946 15.266 7.92587C14.8565 7.90603 14.6038 7.54689 14.701 7.12853C14.7984 6.70958 15.217 6.3907 15.6261 6.41083" fill="#00ABA4"/>
<path fill-rule="evenodd" clip-rule="evenodd" d="M18.1868 5.98198C18.5279 6.06192 18.6931 6.3805 18.5569 6.7198C18.4205 7.0486 18.031 7.25808 17.7002 7.18835C17.3595 7.10841 17.1934 6.78924 17.3298 6.45052C17.4663 6.12172 17.8555 5.91225 18.1868 5.98198" fill="#00ABA4"/>
<path fill-rule="evenodd" clip-rule="evenodd" d="M7.29138 12.4914C7.59253 12.4415 7.83641 12.6609 7.82672 12.9801C7.82672 13.299 7.57315 13.598 7.27143 13.6482C6.96972 13.708 6.73609 13.4886 6.73609 13.1697C6.74606 12.8506 6.98909 12.5512 7.29138 12.4914" fill="#00ABA4"/>
<path fill-rule="evenodd" clip-rule="evenodd" d="M2.97758 16.1598C3.28899 16.1003 3.54255 16.3296 3.53287 16.6587C3.53287 16.9974 3.2699 17.3064 2.95821 17.3662C2.63655 17.4161 2.39323 17.1967 2.39323 16.8679C2.40321 16.5292 2.6562 16.21 2.97758 16.1598" fill="#00ABA4"/>
<path fill-rule="evenodd" clip-rule="evenodd" d="M28.4695 7.18834L27.8367 7.53698C27.8851 8.48398 28.6444 9.63055 29.1897 9.82018C28.7615 9.15208 28.372 7.9956 28.4695 7.18834ZM31.8676 5.30454L31.3128 5.6132C31.3807 6.46044 32.0624 7.47717 32.4032 7.53698C32.1402 7.12854 31.7995 5.99218 31.8676 5.30454ZM35.2269 3.43998L34.7984 3.67921C34.7887 4.23761 35.1882 5.07463 35.6355 5.19454C35.4215 4.84561 35.1585 4.12792 35.2269 3.43998ZM38.4598 1.65566L38.0894 1.86513C38.1187 2.2339 38.5376 2.92184 38.7712 3.03124C38.6834 2.76225 38.4205 2.21406 38.4598 1.65566V1.65566Z" fill="#00ABA4"/>
<path d="M73.8543 16.3037C76.0817 16.3038 77.8381 16.9483 79.1209 18.2471C80.4152 19.5462 81.0564 21.4462 81.0564 23.9688C81.0564 24.2155 81.0451 24.4843 81.034 24.7735C81.0109 25.074 80.9891 25.3324 80.9666 25.5577H70.9051C71.0059 26.4272 71.4342 27.1137 72.1873 27.6289C72.9419 28.1444 73.9543 28.3916 75.2263 28.3916C76.0363 28.3916 76.8361 28.327 77.6238 28.1875C78.4008 28.037 79.0422 27.8651 79.5369 27.6612L80.1336 31.0977C79.8976 31.2048 79.5824 31.3227 79.1883 31.4297C78.7827 31.5476 78.3441 31.6444 77.8601 31.7305C77.3761 31.8162 76.848 31.8917 76.2957 31.9453C75.7449 31.999 75.182 32.0313 74.6306 32.0313C73.224 32.0313 71.9971 31.8267 70.95 31.4297C69.9149 31.0324 69.0468 30.4961 68.3611 29.7989C67.6745 29.1115 67.1676 28.2953 66.8416 27.3506C66.515 26.3953 66.3572 25.3754 66.3572 24.2803C66.3572 22.9491 66.572 21.7896 66.9998 20.8018C67.4156 19.8032 67.9776 18.9766 68.6756 18.3213C69.3738 17.6562 70.1734 17.1523 71.074 16.8086C71.9746 16.476 72.908 16.3037 73.8543 16.3037ZM123.052 16.3037C124.188 16.3037 125.223 16.4859 126.169 16.8721C127.103 17.2479 127.913 17.7749 128.589 18.462C129.264 19.1382 129.793 19.9645 130.165 20.9307C130.547 21.8964 130.739 22.9603 130.739 24.1407C130.739 25.3112 130.558 26.3842 130.199 27.3614C129.838 28.3381 129.319 29.1645 128.644 29.8623C127.97 30.5488 127.171 31.0862 126.225 31.462C125.28 31.8377 124.222 32.0313 123.052 32.0313C121.903 32.0313 120.856 31.8377 119.911 31.462C118.966 31.0862 118.156 30.5487 117.492 29.8623C116.817 29.1645 116.288 28.3381 115.905 27.3614C115.534 26.3841 115.343 25.3113 115.343 24.1407C115.343 22.9603 115.534 21.8964 115.928 20.9307C116.311 19.9647 116.85 19.1381 117.536 18.462C118.211 17.7749 119.034 17.2479 119.968 16.8721C120.913 16.4859 121.937 16.3038 123.052 16.3037ZM52.033 31.1504C51.6286 31.2689 51.1778 31.3761 50.6599 31.4727C50.1418 31.5801 49.6014 31.6657 49.0388 31.7412C48.4766 31.827 47.9022 31.8809 47.3172 31.9346C46.7318 31.9772 46.1695 31.999 45.6297 31.9991C44.3352 31.9991 43.1865 31.8266 42.1736 31.462C41.1608 31.1078 40.3166 30.5821 39.6189 29.9161C38.9212 29.2401 38.3917 28.4233 38.0203 27.4678C37.6605 26.5128 37.4695 25.4393 37.4695 24.2481C37.4695 23.0344 37.639 21.9507 37.9539 20.9737C38.2691 19.9971 38.7188 19.1704 39.3152 18.4834C39.912 17.8072 40.6438 17.281 41.5105 16.9268C42.3654 16.5617 43.3557 16.3897 44.4695 16.3897C45.0886 16.3897 45.6397 16.4435 46.1238 16.5508C46.6075 16.669 47.1038 16.83 47.5994 17.0342V11.2754L52.033 10.1309V31.1504ZM61.7117 16.3897C61.9485 16.3897 62.2412 16.4003 62.5789 16.4327C62.9168 16.454 63.2546 16.4969 63.5916 16.5401C63.9293 16.5934 64.2664 16.6475 64.6033 16.712C64.9416 16.7761 65.2232 16.8615 65.4597 16.958L64.7166 20.4473C64.323 20.3505 63.8497 20.2542 63.3211 20.1465C62.7806 20.0392 62.2062 19.9971 61.5877 19.9971C61.3179 19.9971 60.9806 20.0177 60.5974 20.0606C60.2042 20.1143 59.9113 20.1572 59.7195 20.2217V31.6338H55.2859V17.4952C56.0738 17.2268 57.0186 16.9804 58.0984 16.7442C59.1792 16.5079 60.3842 16.3897 61.7117 16.3897ZM98.906 16.3575C100.155 16.3575 101.18 16.5187 101.99 16.8516C102.79 17.1842 103.431 17.657 103.903 18.2578C104.387 18.8696 104.715 19.5886 104.894 20.4151C105.063 21.2527 105.153 22.176 105.153 23.1953V31.6338H100.719V23.711C100.719 22.348 100.539 21.3815 100.168 20.8125C99.8073 20.2437 99.1766 19.965 98.2762 19.9649C98.0402 19.9649 97.7134 20.0186 97.2859 20.1368C96.8589 20.2441 96.509 20.383 96.2283 20.5547C96.3628 20.9949 96.4525 21.4567 96.4978 21.9395C96.5312 22.4226 96.5545 22.9379 96.5545 23.4854V31.6338H92.1199V23.711C92.1199 22.3479 91.9398 21.3814 91.5681 20.8125C91.1965 20.2437 90.5658 19.9649 89.6775 19.9649C89.3955 19.9649 89.1151 19.9761 88.8103 20.0078C88.5177 20.0291 88.2253 20.0721 87.9549 20.1045V31.6338H83.5096V17.2061C83.8925 17.1093 84.3319 17.0124 84.8377 16.9053C85.3446 16.8085 85.8846 16.7121 86.4471 16.626C87.0096 16.5402 87.5954 16.4758 88.1922 16.4327C88.7881 16.379 89.3743 16.3575 89.948 16.3575C91.0736 16.3575 91.9965 16.4973 92.6941 16.7657C93.4028 17.0451 93.9889 17.3668 94.4383 17.753C95.0805 17.3131 95.7998 16.9692 96.6326 16.7227C97.4539 16.4759 98.209 16.3575 98.906 16.3575ZM112.619 31.6338H108.286V17.0547H112.619V31.6338ZM45.157 19.9649C43.0523 19.9649 41.9939 21.3278 41.9939 24.0547C41.9939 25.3535 42.3092 26.4052 42.9168 27.2002C43.5358 27.9944 44.4476 28.3916 45.6629 28.3916C46.0572 28.3916 46.4284 28.381 46.7664 28.3487C47.1034 28.3274 47.374 28.2954 47.5994 28.252V20.5547C47.3181 20.3934 46.9569 20.2441 46.5066 20.1368C46.057 20.0186 45.6066 19.9649 45.157 19.9649ZM123.052 19.9327C122.038 19.9327 121.262 20.3084 120.699 21.0596C120.148 21.8004 119.866 22.831 119.866 24.1407C119.866 25.4395 120.148 26.4803 120.699 27.2422C121.262 28.0162 122.038 28.3916 123.052 28.3916C124.064 28.3916 124.841 28.0162 125.392 27.2422C125.932 26.4803 126.203 25.4395 126.203 24.1407C126.203 22.8311 125.932 21.8003 125.392 21.0596C124.841 20.3084 124.064 19.9327 123.052 19.9327ZM73.909 19.793C73.4146 19.7931 72.9865 19.8785 72.6385 20.0391C72.2779 20.2004 71.9851 20.4042 71.7371 20.6729C71.5008 20.941 71.3217 21.2422 71.1863 21.5967C71.0632 21.9508 70.9717 22.3041 70.9051 22.6582H76.7683C76.7572 22.3043 76.6891 21.9509 76.5769 21.6075C76.4647 21.2746 76.2956 20.9627 76.0711 20.7051C75.8465 20.4367 75.5527 20.2217 75.2039 20.0498C74.8662 19.8784 74.4266 19.793 73.909 19.793ZM110.434 10.1309C111.132 10.1309 111.74 10.3457 112.247 10.7754C112.764 11.2156 113.024 11.8055 113.024 12.5674C113.024 13.319 112.764 13.9208 112.247 14.3496C111.74 14.7901 111.132 15.0049 110.434 15.0049C109.738 15.0049 109.13 14.7902 108.623 14.3496C108.105 13.9208 107.846 13.3189 107.846 12.5674C107.846 11.8056 108.105 11.2156 108.623 10.7754C109.13 10.3457 109.738 10.1309 110.434 10.1309Z" fill="white"/>
</svg>
